<svg width="24" height="24" viewBox="0 0 24 24" fill="none" xmlns="http://www.w3.org/2000/svg">
<path d="M11.1429 0H12.8571V4.25143H11.1429V0ZM16.8746 5.90571L19.8806 2.90057L21.0926 4.11257L18.0866 7.11857L16.8746 5.90571ZM19.7486 11.1429H24V12.8571H19.7486V11.1429ZM16.8797 18.0891L18.0917 16.8771L21.0977 19.8831L19.8857 21.0943L16.8797 18.0891ZM11.1429 19.7486H12.8571V24H11.1429V19.7486ZM2.91086 19.8874L5.91771 16.8814L7.12971 18.0934L4.12371 21.0994L2.91086 19.8874ZM0 11.1429H4.25143V12.8571H0V11.1429ZM2.90571 4.11686L4.11857 2.90486L7.12457 5.91086L5.91257 7.12286L2.90571 4.11686ZM12 8.57143C12.6781 8.57143 13.341 8.77251 13.9048 9.14925C14.4686 9.52598 14.9081 10.0615 15.1676 10.6879C15.4271 11.3144 15.495 12.0038 15.3627 12.6689C15.2304 13.334 14.9039 13.9449 14.4244 14.4244C13.9449 14.9039 13.334 15.2304 12.6689 15.3627C12.0038 15.495 11.3144 15.4271 10.6879 15.1676C10.0615 14.9081 9.52598 14.4686 9.14925 13.9048C8.77251 13.341 8.57143 12.6781 8.57143 12C8.57143 11.0907 8.93265 10.2186 9.57563 9.57563C10.2186 8.93265 11.0907 8.57143 12 8.57143ZM12 6.85714C10.9828 6.85714 9.98852 7.15877 9.14278 7.72387C8.29704 8.28898 7.63787 9.09218 7.24862 10.0319C6.85937 10.9716 6.75752 12.0057 6.95596 13.0033C7.1544 14.0009 7.64421 14.9173 8.36345 15.6365C9.08269 16.3558 9.99906 16.8456 10.9967 17.044C11.9943 17.2425 13.0284 17.1406 13.9681 16.7514C14.9078 16.3621 15.711 15.703 16.2761 14.8572C16.8412 14.0115 17.1429 13.0172 17.1429 12C17.1429 10.636 16.601 9.32792 15.6365 8.36345C14.6721 7.39898 13.364 6.85714 12 6.85714Z" fill="white"/>
</svg>
