<svg width="22" height="24" viewBox="0 0 22 24" fill="none" xmlns="http://www.w3.org/2000/svg">
<path d="M10.7992 16.8001C12.8044 16.8001 14.3992 15.2029 14.3992 13.2001C14.3992 11.1973 12.8044 9.6001 10.7992 9.6001C8.79402 9.6001 7.19922 11.1973 7.19922 13.2001C7.19922 15.2029 8.79402 16.8001 10.7992 16.8001Z" fill="white"/>
<path d="M21.3804 11.0232C21.0976 9.64121 20.5451 8.32857 19.7544 7.16039C18.9775 6.01113 17.9876 5.0213 16.8384 4.2444C15.6701 3.45399 14.3575 2.90147 12.9756 2.6184C12.2497 2.47119 11.5106 2.39881 10.77 2.4024V0L6 3.6L10.77 7.19999V4.8024C11.3508 4.8 11.9316 4.8552 12.492 4.9704C13.566 5.19049 14.5862 5.61985 15.4944 6.234C16.39 6.83789 17.1609 7.60874 17.7648 8.50439C18.7024 9.89066 19.2023 11.5264 19.2 13.2C19.1998 14.323 18.9754 15.4348 18.54 16.47C18.3282 16.9686 18.0695 17.446 17.7672 17.8956C17.4637 18.3425 17.119 18.7599 16.7376 19.1424C15.576 20.3018 14.1013 21.0971 12.4944 21.4308C11.3769 21.6564 10.2255 21.6564 9.10799 21.4308C8.03346 21.2105 7.01284 20.7807 6.1044 20.166C5.20978 19.5626 4.43975 18.7926 3.8364 17.898C2.89986 16.5102 2.39964 14.8742 2.4 13.2H0C0.001277 15.3524 0.644263 17.4556 1.8468 19.2408C2.62422 20.3882 3.61303 21.377 4.7604 22.1544C6.54314 23.361 8.64733 24.004 10.8 24C11.5311 23.9999 12.2604 23.9263 12.9768 23.7804C14.3577 23.4952 15.6695 22.9429 16.8384 22.1544C17.4123 21.7677 17.9472 21.326 18.4356 20.8356C18.9246 20.3452 19.3665 19.8101 19.7556 19.2372C20.9611 17.4549 21.6037 15.3517 21.6 13.2C21.5999 12.4689 21.5263 11.7396 21.3804 11.0232Z" fill="white"/>
</svg>
