<svg width="24" height="24" viewBox="0 0 24 24" fill="none" xmlns="http://www.w3.org/2000/svg">
<path d="M9 17.25C9 16.7344 8.90234 16.25 8.70703 15.7969C8.51172 15.3437 8.24219 14.9492 7.89844 14.6133C7.55469 14.2773 7.15625 14.0078 6.70312 13.8047C6.25 13.6016 5.76562 13.5 5.25 13.5C4.73438 13.5 4.25 13.5977 3.79688 13.793C3.34375 13.9883 2.94531 14.2578 2.60156 14.6016C2.25781 14.9453 1.98828 15.3437 1.79297 15.7969C1.59766 16.25 1.5 16.7344 1.5 17.25V18H0V17.25C0 16.7578 0.0625 16.2852 0.1875 15.832C0.3125 15.3789 0.5 14.9492 0.75 14.543C1 14.1367 1.29687 13.7695 1.64062 13.4414C1.98438 13.1133 2.375 12.832 2.8125 12.5977C2.39062 12.2383 2.06641 11.8125 1.83984 11.3203C1.61328 10.8281 1.5 10.3047 1.5 9.75C1.5 9.23438 1.59766 8.75 1.79297 8.29688C1.98828 7.84375 2.25391 7.44922 2.58984 7.11328C2.92578 6.77734 3.32422 6.50781 3.78516 6.30469C4.24609 6.10156 4.73438 6 5.25 6C5.76562 6 6.25 6.09766 6.70312 6.29297C7.15625 6.48828 7.55078 6.75781 7.88672 7.10156C8.22266 7.44531 8.49219 7.84375 8.69531 8.29688C8.89844 8.75 9 9.23438 9 9.75C9 10.2969 8.88672 10.8164 8.66016 11.3086C8.43359 11.8008 8.10938 12.2305 7.6875 12.5977C8.11719 12.8242 8.50391 13.1016 8.84766 13.4297C9.19141 13.7578 9.48828 14.125 9.73828 14.5312C9.98828 14.9375 10.1758 15.3672 10.3008 15.8203C10.4258 16.2734 10.4922 16.75 10.5 17.25V18H9V17.25ZM3 9.75C3 10.0625 3.05859 10.3555 3.17578 10.6289C3.29297 10.9023 3.45312 11.1406 3.65625 11.3438C3.85938 11.5469 4.09766 11.707 4.37109 11.8242C4.64453 11.9414 4.9375 12 5.25 12C5.5625 12 5.85547 11.9414 6.12891 11.8242C6.40234 11.707 6.64062 11.5469 6.84375 11.3438C7.04688 11.1406 7.20703 10.9023 7.32422 10.6289C7.44141 10.3555 7.5 10.0625 7.5 9.75C7.5 9.4375 7.44141 9.14453 7.32422 8.87109C7.20703 8.59766 7.04688 8.35938 6.84375 8.15625C6.64062 7.95312 6.40234 7.79297 6.12891 7.67578C5.85547 7.55859 5.5625 7.5 5.25 7.5C4.9375 7.5 4.64453 7.55859 4.37109 7.67578C4.09766 7.79297 3.85938 7.95312 3.65625 8.15625C3.45312 8.35938 3.29297 8.59766 3.17578 8.87109C3.05859 9.14453 3 9.4375 3 9.75ZM21.1875 12.5977C21.6172 12.8242 22.0039 13.1016 22.3477 13.4297C22.6914 13.7578 22.9883 14.125 23.2383 14.5312C23.4883 14.9375 23.6758 15.3672 23.8008 15.8203C23.9258 16.2734 23.9922 16.75 24 17.25V18H22.5V17.25C22.5 16.7344 22.4023 16.25 22.207 15.7969C22.0117 15.3437 21.7422 14.9492 21.3984 14.6133C21.0547 14.2773 20.6563 14.0078 20.2031 13.8047C19.75 13.6016 19.2656 13.5 18.75 13.5C18.2344 13.5 17.75 13.5977 17.2969 13.793C16.8437 13.9883 16.4453 14.2578 16.1016 14.6016C15.7578 14.9453 15.4883 15.3437 15.293 15.7969C15.0977 16.25 15 16.7344 15 17.25V18H13.5V17.25C13.5 16.7578 13.5625 16.2852 13.6875 15.832C13.8125 15.3789 14 14.9492 14.25 14.543C14.5 14.1367 14.7969 13.7695 15.1406 13.4414C15.4844 13.1133 15.875 12.832 16.3125 12.5977C15.8906 12.2383 15.5664 11.8125 15.3398 11.3203C15.1133 10.8281 15 10.3047 15 9.75C15 9.23438 15.0977 8.75 15.293 8.29688C15.4883 7.84375 15.7539 7.44922 16.0898 7.11328C16.4258 6.77734 16.8242 6.50781 17.2852 6.30469C17.7461 6.10156 18.2344 6 18.75 6C19.2656 6 19.75 6.09766 20.2031 6.29297C20.6563 6.48828 21.0508 6.75781 21.3867 7.10156C21.7227 7.44531 21.9922 7.84375 22.1953 8.29688C22.3984 8.75 22.5 9.23438 22.5 9.75C22.5 10.2969 22.3867 10.8164 22.1602 11.3086C21.9336 11.8008 21.6094 12.2305 21.1875 12.5977ZM16.5 9.75C16.5 10.0625 16.5586 10.3555 16.6758 10.6289C16.793 10.9023 16.9531 11.1406 17.1562 11.3438C17.3594 11.5469 17.5977 11.707 17.8711 11.8242C18.1445 11.9414 18.4375 12 18.75 12C19.0625 12 19.3555 11.9414 19.6289 11.8242C19.9023 11.707 20.1406 11.5469 20.3438 11.3438C20.5469 11.1406 20.707 10.9023 20.8242 10.6289C20.9414 10.3555 21 10.0625 21 9.75C21 9.4375 20.9414 9.14453 20.8242 8.87109C20.707 8.59766 20.5469 8.35938 20.3438 8.15625C20.1406 7.95312 19.9023 7.79297 19.6289 7.67578C19.3555 7.55859 19.0625 7.5 18.75 7.5C18.4375 7.5 18.1445 7.55859 17.8711 7.67578C17.5977 7.79297 17.3594 7.95312 17.1562 8.15625C16.9531 8.35938 16.793 8.59766 16.6758 8.87109C16.5586 9.14453 16.5 9.4375 16.5 9.75ZM13.5 1.5C12.8672 1.5 12.2461 1.56641 11.6367 1.69922C11.0273 1.83203 10.4375 2.02344 9.86719 2.27344C9.29687 2.52344 8.75781 2.82813 8.25 3.1875C7.74219 3.54687 7.27344 3.96484 6.84375 4.44141L5.73047 3.43359C6.23047 2.88672 6.77734 2.40234 7.37109 1.98047C7.96484 1.55859 8.58984 1.19922 9.24609 0.902344C9.90234 0.605469 10.5898 0.382813 11.3086 0.234375C12.0273 0.0859375 12.7578 0.0078125 13.5 0C14.5703 0 15.6172 0.15625 16.6406 0.46875C17.6641 0.78125 18.6172 1.25391 19.5 1.88672V0H21V4.5H16.5V3H18.4805C17.7383 2.50781 16.9453 2.13672 16.1016 1.88672C15.2578 1.63672 14.3906 1.50781 13.5 1.5ZM10.5 22.5C11.1328 22.5 11.7539 22.4336 12.3633 22.3008C12.9727 22.168 13.5625 21.9766 14.1328 21.7266C14.7031 21.4766 15.2422 21.1719 15.75 20.8125C16.2578 20.4531 16.7266 20.0352 17.1562 19.5586L18.2695 20.5664C17.7695 21.1133 17.2227 21.5977 16.6289 22.0195C16.0352 22.4414 15.4063 22.8008 14.7422 23.0977C14.0781 23.3945 13.3906 23.6172 12.6797 23.7656C11.9687 23.9141 11.2422 23.9922 10.5 24C9.42969 24 8.38281 23.8437 7.35938 23.5312C6.33594 23.2188 5.38281 22.7461 4.5 22.1133V24H3V19.5H7.5V21H5.51953C6.26172 21.4922 7.05469 21.8633 7.89844 22.1133C8.74219 22.3633 9.60938 22.4922 10.5 22.5Z" fill="white"/>
</svg>
