<svg width="108" height="108" viewBox="0 0 108 108" fill="none" xmlns="http://www.w3.org/2000/svg">
<rect x="1" y="1" width="106" height="106" rx="3" fill="white"/>
<rect x="1" y="1" width="106" height="106" rx="3" stroke="#81AF79" stroke-width="2"/>
<path d="M61.4271 62.6777L63.9058 68.0077C63.9058 68.0077 75.0482 70.3737 75.0482 76.0013C75.0482 79.9995 70.0909 79.9995 70.0909 79.9995H56.8887L50.3887 76.3884" stroke="#5C8D54" stroke-width="4" stroke-linecap="round" stroke-linejoin="round"/>
<path d="M46.5742 62.6777L44.0985 68.0077C44.0985 68.0077 32.9531 70.3737 32.9531 76.0013C32.9531 79.9995 37.9105 79.9995 37.9105 79.9995H43.8905L50.3905 76.3884L58.3349 71.3328" stroke="#5C8D54" stroke-width="4" stroke-linecap="round" stroke-linejoin="round"/>
<path d="M28 65.3418C28 65.3418 34.1909 64.01 37.906 62.6782C41.6182 44.0218 52.7578 45.3536 54 45.3536C55.2393 45.3536 66.3818 44.0218 70.094 62.6782C73.8091 64.0071 80 65.3418 80 65.3418M54 39.5556C55.5324 39.5556 57.002 38.9468 58.0855 37.8633C59.169 36.7797 59.7778 35.3101 59.7778 33.7778C59.7778 32.2454 59.169 30.7758 58.0855 29.6923C57.002 28.6087 55.5324 28 54 28C52.4676 28 50.998 28.6087 49.9145 29.6923C48.831 30.7758 48.2222 32.2454 48.2222 33.7778C48.2222 35.3101 48.831 36.7797 49.9145 37.8633C50.998 38.9468 52.4676 39.5556 54 39.5556Z" stroke="#5C8D54" stroke-width="4" stroke-linecap="round" stroke-linejoin="round"/>
</svg>
